<svg xmlns="http://www.w3.org/2000/svg" xml:space="preserve" viewBox="0 0 512 512"><path d="M194.2 0c-53.6 0-97.1 43.6-97.1 97.1 0 29.3 13.1 55.5 33.6 73.3-30.5 16.4-51.3 48.6-51.3 85.6 0 32.9 16.4 61.9 41.5 79.4-25 17.6-41.5 46.6-41.5 79.4 0 53.6 43.6 97.1 97.1 97.1s97.1-43.6 97.1-97.1V194.2h61.8c53.6 0 97.1-43.6 97.1-97.1S389 0 335.4 0zm0 35.3h141.2c34.1 0 61.8 27.7 61.8 61.8s-27.7 61.8-61.8 61.8H194.2c-34.1 0-61.8-27.7-61.8-61.8s27.7-61.8 61.8-61.8m-17.6 158.9h61.8v123.6h-61.8c-34.1 0-61.8-27.7-61.8-61.8s27.7-61.8 61.8-61.8m167.7 0c-39 0-70.6 31.6-70.6 70.6s31.6 70.6 70.6 70.6 70.6-31.6 70.6-70.6-31.6-70.6-70.6-70.6M176.6 353.1h61.8v61.8c0 34.1-27.7 61.8-61.8 61.8s-61.8-27.7-61.8-61.8 27.7-61.8 61.8-61.8"/></svg>